<svg xmlns="http://www.w3.org/2000/svg" width="2640" height="420" viewBox="0 0 2640 420">
<rect width="100%" height="100%" fill="#ffffff"/>
<text x="1320.0" y="28" text-anchor="middle" font-family="Arial" font-size="18" fill="#111">Committed run-result rows by model/source</text>
<line x1="80" y1="330" x2="2610" y2="330" stroke="#333"/>
<line x1="80" y1="50" x2="80" y2="330" stroke="#333"/>
<text x="20" y="210.0" transform="rotate(-90 20 210.0)" text-anchor="middle" font-family="Arial" font-size="12" fill="#333">rows</text>
<rect x="96.1" y="50.0" width="82.8" height="280.0" fill="#3b82f6"/>
<text x="137.5" y="44.0" text-anchor="middle" font-family="Arial" font-size="12" fill="#111">25</text>
<text x="137.5" y="348" text-anchor="end" transform="rotate(-35 137.5 348)" font-family="Arial" font-size="11" fill="#333">reference_solution</text>
<rect x="211.1" y="307.6" width="82.8" height="22.4" fill="#3b82f6"/>
<text x="252.5" y="301.6" text-anchor="middle" font-family="Arial" font-size="12" fill="#111">2</text>
<text x="252.5" y="348" text-anchor="end" transform="rotate(-35 252.5 348)" font-family="Arial" font-size="11" fill="#333">plausible_wrong:Weakened</text>
<rect x="326.1" y="318.8" width="82.8" height="11.2" fill="#3b82f6"/>
<text x="367.5" y="312.8" text-anchor="middle" font-family="Arial" font-size="12" fill="#111">1</text>
<text x="367.5" y="348" text-anchor="end" transform="rotate(-35 367.5 348)" font-family="Arial" font-size="11" fill="#333">plausible_wrong:OldApiProof</text>
<rect x="441.1" y="285.2" width="82.8" height="44.8" fill="#3b82f6"/>
<text x="482.5" y="279.2" text-anchor="middle" font-family="Arial" font-size="12" fill="#111">4</text>
<text x="482.5" y="348" text-anchor="end" transform="rotate(-35 482.5 348)" font-family="Arial" font-size="11" fill="#333">plausible_wrong:Vacuous</text>
<rect x="556.1" y="318.8" width="82.8" height="11.2" fill="#3b82f6"/>
<text x="597.5" y="312.8" text-anchor="middle" font-family="Arial" font-size="12" fill="#111">1</text>
<text x="597.5" y="348" text-anchor="end" transform="rotate(-35 597.5 348)" font-family="Arial" font-size="11" fill="#333">plausible_wrong:IdentityProjection</text>
<rect x="671.1" y="318.8" width="82.8" height="11.2" fill="#3b82f6"/>
<text x="712.5" y="312.8" text-anchor="middle" font-family="Arial" font-size="12" fill="#111">1</text>
<text x="712.5" y="348" text-anchor="end" transform="rotate(-35 712.5 348)" font-family="Arial" font-size="11" fill="#333">plausible_wrong:WeakHelper</text>
<rect x="786.1" y="318.8" width="82.8" height="11.2" fill="#3b82f6"/>
<text x="827.5" y="312.8" text-anchor="middle" font-family="Arial" font-size="12" fill="#111">1</text>
<text x="827.5" y="348" text-anchor="end" transform="rotate(-35 827.5 348)" font-family="Arial" font-size="11" fill="#333">plausible_wrong:AllSomeOnly</text>
<rect x="901.1" y="318.8" width="82.8" height="11.2" fill="#3b82f6"/>
<text x="942.5" y="312.8" text-anchor="middle" font-family="Arial" font-size="12" fill="#111">1</text>
<text x="942.5" y="348" text-anchor="end" transform="rotate(-35 942.5 348)" font-family="Arial" font-size="11" fill="#333">plausible_wrong:LeafOnly</text>
<rect x="1016.1" y="318.8" width="82.8" height="11.2" fill="#3b82f6"/>
<text x="1057.5" y="312.8" text-anchor="middle" font-family="Arial" font-size="12" fill="#111">1</text>
<text x="1057.5" y="348" text-anchor="end" transform="rotate(-35 1057.5 348)" font-family="Arial" font-size="11" fill="#333">plausible_wrong:EmptyOnly</text>
<rect x="1131.1" y="318.8" width="82.8" height="11.2" fill="#3b82f6"/>
<text x="1172.5" y="312.8" text-anchor="middle" font-family="Arial" font-size="12" fill="#111">1</text>
<text x="1172.5" y="348" text-anchor="end" transform="rotate(-35 1172.5 348)" font-family="Arial" font-size="11" fill="#333">plausible_wrong:SingleIncrementOnly</text>
<rect x="1246.1" y="318.8" width="82.8" height="11.2" fill="#3b82f6"/>
<text x="1287.5" y="312.8" text-anchor="middle" font-family="Arial" font-size="12" fill="#111">1</text>
<text x="1287.5" y="348" text-anchor="end" transform="rotate(-35 1287.5 348)" font-family="Arial" font-size="11" fill="#333">plausible_wrong:Reversed</text>
<rect x="1361.1" y="318.8" width="82.8" height="11.2" fill="#3b82f6"/>
<text x="1402.5" y="312.8" text-anchor="middle" font-family="Arial" font-size="12" fill="#111">1</text>
<text x="1402.5" y="348" text-anchor="end" transform="rotate(-35 1402.5 348)" font-family="Arial" font-size="11" fill="#333">plausible_wrong:SpendAlwaysSubtract</text>
<rect x="1476.1" y="318.8" width="82.8" height="11.2" fill="#3b82f6"/>
<text x="1517.5" y="312.8" text-anchor="middle" font-family="Arial" font-size="12" fill="#111">1</text>
<text x="1517.5" y="348" text-anchor="end" transform="rotate(-35 1517.5 348)" font-family="Arial" font-size="11" fill="#333">plausible_wrong:OnlySmallGrad</text>
<rect x="1591.1" y="318.8" width="82.8" height="11.2" fill="#3b82f6"/>
<text x="1632.5" y="312.8" text-anchor="middle" font-family="Arial" font-size="12" fill="#111">1</text>
<text x="1632.5" y="348" text-anchor="end" transform="rotate(-35 1632.5 348)" font-family="Arial" font-size="11" fill="#333">plausible_wrong:NoUpperClip</text>
<rect x="1706.1" y="318.8" width="82.8" height="11.2" fill="#3b82f6"/>
<text x="1747.5" y="312.8" text-anchor="middle" font-family="Arial" font-size="12" fill="#111">1</text>
<text x="1747.5" y="348" text-anchor="end" transform="rotate(-35 1747.5 348)" font-family="Arial" font-size="11" fill="#333">plausible_wrong:ProjectionAdd</text>
<rect x="1821.1" y="318.8" width="82.8" height="11.2" fill="#3b82f6"/>
<text x="1862.5" y="312.8" text-anchor="middle" font-family="Arial" font-size="12" fill="#111">1</text>
<text x="1862.5" y="348" text-anchor="end" transform="rotate(-35 1862.5 348)" font-family="Arial" font-size="11" fill="#333">plausible_wrong:ReverseAppend</text>
<rect x="1936.1" y="318.8" width="82.8" height="11.2" fill="#3b82f6"/>
<text x="1977.5" y="312.8" text-anchor="middle" font-family="Arial" font-size="12" fill="#111">1</text>
<text x="1977.5" y="348" text-anchor="end" transform="rotate(-35 1977.5 348)" font-family="Arial" font-size="11" fill="#333">plausible_wrong:IdentityMap</text>
<rect x="2051.1" y="318.8" width="82.8" height="11.2" fill="#3b82f6"/>
<text x="2092.5" y="312.8" text-anchor="middle" font-family="Arial" font-size="12" fill="#111">1</text>
<text x="2092.5" y="348" text-anchor="end" transform="rotate(-35 2092.5 348)" font-family="Arial" font-size="11" fill="#333">plausible_wrong:NeedsExtraHyp</text>
<rect x="2166.1" y="318.8" width="82.8" height="11.2" fill="#3b82f6"/>
<text x="2207.5" y="312.8" text-anchor="middle" font-family="Arial" font-size="12" fill="#111">1</text>
<text x="2207.5" y="348" text-anchor="end" transform="rotate(-35 2207.5 348)" font-family="Arial" font-size="11" fill="#333">plausible_wrong:OldEntryOnly</text>
<rect x="2281.1" y="318.8" width="82.8" height="11.2" fill="#3b82f6"/>
<text x="2322.5" y="312.8" text-anchor="middle" font-family="Arial" font-size="12" fill="#111">1</text>
<text x="2322.5" y="348" text-anchor="end" transform="rotate(-35 2322.5 348)" font-family="Arial" font-size="11" fill="#333">plausible_wrong:MissingSurjectivity</text>
<rect x="2396.1" y="318.8" width="82.8" height="11.2" fill="#3b82f6"/>
<text x="2437.5" y="312.8" text-anchor="middle" font-family="Arial" font-size="12" fill="#111">1</text>
<text x="2437.5" y="348" text-anchor="end" transform="rotate(-35 2437.5 348)" font-family="Arial" font-size="11" fill="#333">plausible_wrong:LengthOnly</text>
<rect x="2511.1" y="318.8" width="82.8" height="11.2" fill="#3b82f6"/>
<text x="2552.5" y="312.8" text-anchor="middle" font-family="Arial" font-size="12" fill="#111">1</text>
<text x="2552.5" y="348" text-anchor="end" transform="rotate(-35 2552.5 348)" font-family="Arial" font-size="11" fill="#333">plausible_wrong:SetMembershipOnly</text>
</svg>