<svg xmlns="http://www.w3.org/2000/svg" width="4800" height="420" viewBox="0 0 4800 420">
<rect width="100%" height="100%" fill="#ffffff"/>
<text x="2400.0" y="28" text-anchor="middle" font-family="Arial" font-size="18" fill="#111">Committed QA/model rows by source</text>
<line x1="80" y1="330" x2="4770" y2="330" stroke="#333"/>
<line x1="80" y1="50" x2="80" y2="330" stroke="#333"/>
<text x="20" y="210.0" transform="rotate(-90 20 210.0)" text-anchor="middle" font-family="Arial" font-size="12" fill="#333">rows</text>
<rect x="96.4" y="297.7" width="84.4" height="32.3" fill="#3b82f6"/>
<text x="138.6" y="291.7" text-anchor="middle" font-family="Arial" font-size="12" fill="#111">3</text>
<text x="138.6" y="348" text-anchor="end" transform="rotate(-35 138.6 348)" font-family="Arial" font-size="11" fill="#333">anthropic</text>
<rect x="213.7" y="50.0" width="84.4" height="280.0" fill="#3b82f6"/>
<text x="255.9" y="44.0" text-anchor="middle" font-family="Arial" font-size="12" fill="#111">26</text>
<text x="255.9" y="348" text-anchor="end" transform="rotate(-35 255.9 348)" font-family="Arial" font-size="11" fill="#333">reference_solution</text>
<rect x="330.9" y="319.2" width="84.4" height="10.8" fill="#3b82f6"/>
<text x="373.1" y="313.2" text-anchor="middle" font-family="Arial" font-size="12" fill="#111">1</text>
<text x="373.1" y="348" text-anchor="end" transform="rotate(-35 373.1 348)" font-family="Arial" font-size="11" fill="#333">plausible_wrong:LengthInsteadOfSum</text>
<rect x="448.2" y="308.5" width="84.4" height="21.5" fill="#3b82f6"/>
<text x="490.4" y="302.5" text-anchor="middle" font-family="Arial" font-size="12" fill="#111">2</text>
<text x="490.4" y="348" text-anchor="end" transform="rotate(-35 490.4 348)" font-family="Arial" font-size="11" fill="#333">plausible_wrong:Weakened</text>
<rect x="565.4" y="319.2" width="84.4" height="10.8" fill="#3b82f6"/>
<text x="607.6" y="313.2" text-anchor="middle" font-family="Arial" font-size="12" fill="#111">1</text>
<text x="607.6" y="348" text-anchor="end" transform="rotate(-35 607.6 348)" font-family="Arial" font-size="11" fill="#333">plausible_wrong:CountsAllEntries</text>
<rect x="682.7" y="319.2" width="84.4" height="10.8" fill="#3b82f6"/>
<text x="724.9" y="313.2" text-anchor="middle" font-family="Arial" font-size="12" fill="#111">1</text>
<text x="724.9" y="348" text-anchor="end" transform="rotate(-35 724.9 348)" font-family="Arial" font-size="11" fill="#333">plausible_wrong:FrontQueue</text>
<rect x="799.9" y="319.2" width="84.4" height="10.8" fill="#3b82f6"/>
<text x="842.1" y="313.2" text-anchor="middle" font-family="Arial" font-size="12" fill="#111">1</text>
<text x="842.1" y="348" text-anchor="end" transform="rotate(-35 842.1 348)" font-family="Arial" font-size="11" fill="#333">plausible_wrong:OldApiProof</text>
<rect x="917.2" y="319.2" width="84.4" height="10.8" fill="#3b82f6"/>
<text x="959.4" y="313.2" text-anchor="middle" font-family="Arial" font-size="12" fill="#111">1</text>
<text x="959.4" y="348" text-anchor="end" transform="rotate(-35 959.4 348)" font-family="Arial" font-size="11" fill="#333">plausible_wrong:EndpointsOnly</text>
<rect x="1034.4" y="286.9" width="84.4" height="43.1" fill="#3b82f6"/>
<text x="1076.6" y="280.9" text-anchor="middle" font-family="Arial" font-size="12" fill="#111">4</text>
<text x="1076.6" y="348" text-anchor="end" transform="rotate(-35 1076.6 348)" font-family="Arial" font-size="11" fill="#333">plausible_wrong:Vacuous</text>
<rect x="1151.7" y="319.2" width="84.4" height="10.8" fill="#3b82f6"/>
<text x="1193.9" y="313.2" text-anchor="middle" font-family="Arial" font-size="12" fill="#111">1</text>
<text x="1193.9" y="348" text-anchor="end" transform="rotate(-35 1193.9 348)" font-family="Arial" font-size="11" fill="#333">plausible_wrong:IdentityProjection</text>
<rect x="1268.9" y="319.2" width="84.4" height="10.8" fill="#3b82f6"/>
<text x="1311.1" y="313.2" text-anchor="middle" font-family="Arial" font-size="12" fill="#111">1</text>
<text x="1311.1" y="348" text-anchor="end" transform="rotate(-35 1311.1 348)" font-family="Arial" font-size="11" fill="#333">plausible_wrong:OldEntryOnly</text>
<rect x="1386.2" y="319.2" width="84.4" height="10.8" fill="#3b82f6"/>
<text x="1428.4" y="313.2" text-anchor="middle" font-family="Arial" font-size="12" fill="#111">1</text>
<text x="1428.4" y="348" text-anchor="end" transform="rotate(-35 1428.4 348)" font-family="Arial" font-size="11" fill="#333">plausible_wrong:SingletonBatchOnly</text>
<rect x="1503.4" y="319.2" width="84.4" height="10.8" fill="#3b82f6"/>
<text x="1545.6" y="313.2" text-anchor="middle" font-family="Arial" font-size="12" fill="#111">1</text>
<text x="1545.6" y="348" text-anchor="end" transform="rotate(-35 1545.6 348)" font-family="Arial" font-size="11" fill="#333">plausible_wrong:ListEquality</text>
<rect x="1620.7" y="319.2" width="84.4" height="10.8" fill="#3b82f6"/>
<text x="1662.9" y="313.2" text-anchor="middle" font-family="Arial" font-size="12" fill="#111">1</text>
<text x="1662.9" y="348" text-anchor="end" transform="rotate(-35 1662.9 348)" font-family="Arial" font-size="11" fill="#333">plausible_wrong:AppendInsteadOfReverse</text>
<rect x="1737.9" y="319.2" width="84.4" height="10.8" fill="#3b82f6"/>
<text x="1780.1" y="313.2" text-anchor="middle" font-family="Arial" font-size="12" fill="#111">1</text>
<text x="1780.1" y="348" text-anchor="end" transform="rotate(-35 1780.1 348)" font-family="Arial" font-size="11" fill="#333">plausible_wrong:WeakHelper</text>
<rect x="1855.2" y="319.2" width="84.4" height="10.8" fill="#3b82f6"/>
<text x="1897.4" y="313.2" text-anchor="middle" font-family="Arial" font-size="12" fill="#111">1</text>
<text x="1897.4" y="348" text-anchor="end" transform="rotate(-35 1897.4 348)" font-family="Arial" font-size="11" fill="#333">plausible_wrong:AllSomeOnly</text>
<rect x="1972.4" y="319.2" width="84.4" height="10.8" fill="#3b82f6"/>
<text x="2014.6" y="313.2" text-anchor="middle" font-family="Arial" font-size="12" fill="#111">1</text>
<text x="2014.6" y="348" text-anchor="end" transform="rotate(-35 2014.6 348)" font-family="Arial" font-size="11" fill="#333">plausible_wrong:LeafOnly</text>
<rect x="2089.7" y="319.2" width="84.4" height="10.8" fill="#3b82f6"/>
<text x="2131.9" y="313.2" text-anchor="middle" font-family="Arial" font-size="12" fill="#111">1</text>
<text x="2131.9" y="348" text-anchor="end" transform="rotate(-35 2131.9 348)" font-family="Arial" font-size="11" fill="#333">plausible_wrong:EmptyOnly</text>
<rect x="2206.9" y="319.2" width="84.4" height="10.8" fill="#3b82f6"/>
<text x="2249.1" y="313.2" text-anchor="middle" font-family="Arial" font-size="12" fill="#111">1</text>
<text x="2249.1" y="348" text-anchor="end" transform="rotate(-35 2249.1 348)" font-family="Arial" font-size="11" fill="#333">plausible_wrong:FirstIncrementOnly</text>
<rect x="2324.2" y="319.2" width="84.4" height="10.8" fill="#3b82f6"/>
<text x="2366.4" y="313.2" text-anchor="middle" font-family="Arial" font-size="12" fill="#111">1</text>
<text x="2366.4" y="348" text-anchor="end" transform="rotate(-35 2366.4 348)" font-family="Arial" font-size="11" fill="#333">plausible_wrong:SingleIncrementOnly</text>
<rect x="2441.4" y="319.2" width="84.4" height="10.8" fill="#3b82f6"/>
<text x="2483.6" y="313.2" text-anchor="middle" font-family="Arial" font-size="12" fill="#111">1</text>
<text x="2483.6" y="348" text-anchor="end" transform="rotate(-35 2483.6 348)" font-family="Arial" font-size="11" fill="#333">plausible_wrong:Reversed</text>
<rect x="2558.7" y="319.2" width="84.4" height="10.8" fill="#3b82f6"/>
<text x="2600.9" y="313.2" text-anchor="middle" font-family="Arial" font-size="12" fill="#111">1</text>
<text x="2600.9" y="348" text-anchor="end" transform="rotate(-35 2600.9 348)" font-family="Arial" font-size="11" fill="#333">plausible_wrong:NonemptyHaystack</text>
<rect x="2675.9" y="319.2" width="84.4" height="10.8" fill="#3b82f6"/>
<text x="2718.1" y="313.2" text-anchor="middle" font-family="Arial" font-size="12" fill="#111">1</text>
<text x="2718.1" y="348" text-anchor="end" transform="rotate(-35 2718.1 348)" font-family="Arial" font-size="11" fill="#333">plausible_wrong:FirstPairOnly</text>
<rect x="2793.2" y="319.2" width="84.4" height="10.8" fill="#3b82f6"/>
<text x="2835.4" y="313.2" text-anchor="middle" font-family="Arial" font-size="12" fill="#111">1</text>
<text x="2835.4" y="348" text-anchor="end" transform="rotate(-35 2835.4 348)" font-family="Arial" font-size="11" fill="#333">plausible_wrong:SpendAlwaysSubtract</text>
<rect x="2910.4" y="319.2" width="84.4" height="10.8" fill="#3b82f6"/>
<text x="2952.6" y="313.2" text-anchor="middle" font-family="Arial" font-size="12" fill="#111">1</text>
<text x="2952.6" y="348" text-anchor="end" transform="rotate(-35 2952.6 348)" font-family="Arial" font-size="11" fill="#333">plausible_wrong:OnlySmallGrad</text>
<rect x="3027.7" y="319.2" width="84.4" height="10.8" fill="#3b82f6"/>
<text x="3069.9" y="313.2" text-anchor="middle" font-family="Arial" font-size="12" fill="#111">1</text>
<text x="3069.9" y="348" text-anchor="end" transform="rotate(-35 3069.9 348)" font-family="Arial" font-size="11" fill="#333">plausible_wrong:NoUpperClip</text>
<rect x="3144.9" y="319.2" width="84.4" height="10.8" fill="#3b82f6"/>
<text x="3187.1" y="313.2" text-anchor="middle" font-family="Arial" font-size="12" fill="#111">1</text>
<text x="3187.1" y="348" text-anchor="end" transform="rotate(-35 3187.1 348)" font-family="Arial" font-size="11" fill="#333">plausible_wrong:ProjectionAdd</text>
<rect x="3262.2" y="319.2" width="84.4" height="10.8" fill="#3b82f6"/>
<text x="3304.4" y="313.2" text-anchor="middle" font-family="Arial" font-size="12" fill="#111">1</text>
<text x="3304.4" y="348" text-anchor="end" transform="rotate(-35 3304.4 348)" font-family="Arial" font-size="11" fill="#333">plausible_wrong:ReverseAppend</text>
<rect x="3379.4" y="319.2" width="84.4" height="10.8" fill="#3b82f6"/>
<text x="3421.6" y="313.2" text-anchor="middle" font-family="Arial" font-size="12" fill="#111">1</text>
<text x="3421.6" y="348" text-anchor="end" transform="rotate(-35 3421.6 348)" font-family="Arial" font-size="11" fill="#333">plausible_wrong:IdentityMap</text>
<rect x="3496.7" y="319.2" width="84.4" height="10.8" fill="#3b82f6"/>
<text x="3538.9" y="313.2" text-anchor="middle" font-family="Arial" font-size="12" fill="#111">1</text>
<text x="3538.9" y="348" text-anchor="end" transform="rotate(-35 3538.9 348)" font-family="Arial" font-size="11" fill="#333">plausible_wrong:NeedsExtraHyp</text>
<rect x="3613.9" y="319.2" width="84.4" height="10.8" fill="#3b82f6"/>
<text x="3656.1" y="313.2" text-anchor="middle" font-family="Arial" font-size="12" fill="#111">1</text>
<text x="3656.1" y="348" text-anchor="end" transform="rotate(-35 3656.1 348)" font-family="Arial" font-size="11" fill="#333">plausible_wrong:MissingSurjectivity</text>
<rect x="3731.2" y="319.2" width="84.4" height="10.8" fill="#3b82f6"/>
<text x="3773.4" y="313.2" text-anchor="middle" font-family="Arial" font-size="12" fill="#111">1</text>
<text x="3773.4" y="348" text-anchor="end" transform="rotate(-35 3773.4 348)" font-family="Arial" font-size="11" fill="#333">plausible_wrong:UnivOnlySurjectivity</text>
<rect x="3848.4" y="319.2" width="84.4" height="10.8" fill="#3b82f6"/>
<text x="3890.6" y="313.2" text-anchor="middle" font-family="Arial" font-size="12" fill="#111">1</text>
<text x="3890.6" y="348" text-anchor="end" transform="rotate(-35 3890.6 348)" font-family="Arial" font-size="11" fill="#333">plausible_wrong:AllLeVacuous</text>
<rect x="3965.7" y="319.2" width="84.4" height="10.8" fill="#3b82f6"/>
<text x="4007.9" y="313.2" text-anchor="middle" font-family="Arial" font-size="12" fill="#111">1</text>
<text x="4007.9" y="348" text-anchor="end" transform="rotate(-35 4007.9 348)" font-family="Arial" font-size="11" fill="#333">plausible_wrong:LengthAsSum</text>
<rect x="4082.9" y="319.2" width="84.4" height="10.8" fill="#3b82f6"/>
<text x="4125.1" y="313.2" text-anchor="middle" font-family="Arial" font-size="12" fill="#111">1</text>
<text x="4125.1" y="348" text-anchor="end" transform="rotate(-35 4125.1 348)" font-family="Arial" font-size="11" fill="#333">plausible_wrong:LengthOnly</text>
<rect x="4200.2" y="319.2" width="84.4" height="10.8" fill="#3b82f6"/>
<text x="4242.4" y="313.2" text-anchor="middle" font-family="Arial" font-size="12" fill="#111">1</text>
<text x="4242.4" y="348" text-anchor="end" transform="rotate(-35 4242.4 348)" font-family="Arial" font-size="11" fill="#333">plausible_wrong:BagEqTrivial</text>
<rect x="4317.4" y="319.2" width="84.4" height="10.8" fill="#3b82f6"/>
<text x="4359.6" y="313.2" text-anchor="middle" font-family="Arial" font-size="12" fill="#111">1</text>
<text x="4359.6" y="348" text-anchor="end" transform="rotate(-35 4359.6 348)" font-family="Arial" font-size="11" fill="#333">plausible_wrong:LengthBagEq</text>
<rect x="4434.7" y="319.2" width="84.4" height="10.8" fill="#3b82f6"/>
<text x="4476.9" y="313.2" text-anchor="middle" font-family="Arial" font-size="12" fill="#111">1</text>
<text x="4476.9" y="348" text-anchor="end" transform="rotate(-35 4476.9 348)" font-family="Arial" font-size="11" fill="#333">plausible_wrong:SetMembershipOnly</text>
<rect x="4551.9" y="319.2" width="84.4" height="10.8" fill="#3b82f6"/>
<text x="4594.1" y="313.2" text-anchor="middle" font-family="Arial" font-size="12" fill="#111">1</text>
<text x="4594.1" y="348" text-anchor="end" transform="rotate(-35 4594.1 348)" font-family="Arial" font-size="11" fill="#333">plausible_wrong:DropRightSide</text>
<rect x="4669.2" y="319.2" width="84.4" height="10.8" fill="#3b82f6"/>
<text x="4711.4" y="313.2" text-anchor="middle" font-family="Arial" font-size="12" fill="#111">1</text>
<text x="4711.4" y="348" text-anchor="end" transform="rotate(-35 4711.4 348)" font-family="Arial" font-size="11" fill="#333">plausible_wrong:WeakAllGt</text>
</svg>