<svg xmlns="http://www.w3.org/2000/svg" width="4560" height="420" viewBox="0 0 4560 420">
<rect width="100%" height="100%" fill="#ffffff"/>
<text x="2280.0" y="28" text-anchor="middle" font-family="Arial" font-size="18" fill="#111">Committed QA/model rows by source</text>
<line x1="80" y1="330" x2="4530" y2="330" stroke="#333"/>
<line x1="80" y1="50" x2="80" y2="330" stroke="#333"/>
<text x="20" y="210.0" transform="rotate(-90 20 210.0)" text-anchor="middle" font-family="Arial" font-size="12" fill="#333">rows</text>
<rect x="96.4" y="297.7" width="84.3" height="32.3" fill="#3b82f6"/>
<text x="138.6" y="291.7" text-anchor="middle" font-family="Arial" font-size="12" fill="#111">3</text>
<text x="138.6" y="348" text-anchor="end" transform="rotate(-35 138.6 348)" font-family="Arial" font-size="11" fill="#333">anthropic</text>
<rect x="213.5" y="50.0" width="84.3" height="280.0" fill="#3b82f6"/>
<text x="255.7" y="44.0" text-anchor="middle" font-family="Arial" font-size="12" fill="#111">26</text>
<text x="255.7" y="348" text-anchor="end" transform="rotate(-35 255.7 348)" font-family="Arial" font-size="11" fill="#333">reference_solution</text>
<rect x="330.6" y="319.2" width="84.3" height="10.8" fill="#3b82f6"/>
<text x="372.8" y="313.2" text-anchor="middle" font-family="Arial" font-size="12" fill="#111">1</text>
<text x="372.8" y="348" text-anchor="end" transform="rotate(-35 372.8 348)" font-family="Arial" font-size="11" fill="#333">plausible_wrong:LengthInsteadOfSum</text>
<rect x="447.7" y="308.5" width="84.3" height="21.5" fill="#3b82f6"/>
<text x="489.9" y="302.5" text-anchor="middle" font-family="Arial" font-size="12" fill="#111">2</text>
<text x="489.9" y="348" text-anchor="end" transform="rotate(-35 489.9 348)" font-family="Arial" font-size="11" fill="#333">plausible_wrong:Weakened</text>
<rect x="564.8" y="319.2" width="84.3" height="10.8" fill="#3b82f6"/>
<text x="607.0" y="313.2" text-anchor="middle" font-family="Arial" font-size="12" fill="#111">1</text>
<text x="607.0" y="348" text-anchor="end" transform="rotate(-35 607.0 348)" font-family="Arial" font-size="11" fill="#333">plausible_wrong:CountsAllEntries</text>
<rect x="681.9" y="319.2" width="84.3" height="10.8" fill="#3b82f6"/>
<text x="724.1" y="313.2" text-anchor="middle" font-family="Arial" font-size="12" fill="#111">1</text>
<text x="724.1" y="348" text-anchor="end" transform="rotate(-35 724.1 348)" font-family="Arial" font-size="11" fill="#333">plausible_wrong:FrontQueue</text>
<rect x="799.0" y="319.2" width="84.3" height="10.8" fill="#3b82f6"/>
<text x="841.2" y="313.2" text-anchor="middle" font-family="Arial" font-size="12" fill="#111">1</text>
<text x="841.2" y="348" text-anchor="end" transform="rotate(-35 841.2 348)" font-family="Arial" font-size="11" fill="#333">plausible_wrong:OldApiProof</text>
<rect x="916.1" y="319.2" width="84.3" height="10.8" fill="#3b82f6"/>
<text x="958.3" y="313.2" text-anchor="middle" font-family="Arial" font-size="12" fill="#111">1</text>
<text x="958.3" y="348" text-anchor="end" transform="rotate(-35 958.3 348)" font-family="Arial" font-size="11" fill="#333">plausible_wrong:EndpointsOnly</text>
<rect x="1033.2" y="286.9" width="84.3" height="43.1" fill="#3b82f6"/>
<text x="1075.4" y="280.9" text-anchor="middle" font-family="Arial" font-size="12" fill="#111">4</text>
<text x="1075.4" y="348" text-anchor="end" transform="rotate(-35 1075.4 348)" font-family="Arial" font-size="11" fill="#333">plausible_wrong:Vacuous</text>
<rect x="1150.3" y="319.2" width="84.3" height="10.8" fill="#3b82f6"/>
<text x="1192.5" y="313.2" text-anchor="middle" font-family="Arial" font-size="12" fill="#111">1</text>
<text x="1192.5" y="348" text-anchor="end" transform="rotate(-35 1192.5 348)" font-family="Arial" font-size="11" fill="#333">plausible_wrong:IdentityProjection</text>
<rect x="1267.4" y="319.2" width="84.3" height="10.8" fill="#3b82f6"/>
<text x="1309.6" y="313.2" text-anchor="middle" font-family="Arial" font-size="12" fill="#111">1</text>
<text x="1309.6" y="348" text-anchor="end" transform="rotate(-35 1309.6 348)" font-family="Arial" font-size="11" fill="#333">plausible_wrong:OldEntryOnly</text>
<rect x="1384.6" y="319.2" width="84.3" height="10.8" fill="#3b82f6"/>
<text x="1426.7" y="313.2" text-anchor="middle" font-family="Arial" font-size="12" fill="#111">1</text>
<text x="1426.7" y="348" text-anchor="end" transform="rotate(-35 1426.7 348)" font-family="Arial" font-size="11" fill="#333">plausible_wrong:SingletonBatchOnly</text>
<rect x="1501.7" y="319.2" width="84.3" height="10.8" fill="#3b82f6"/>
<text x="1543.8" y="313.2" text-anchor="middle" font-family="Arial" font-size="12" fill="#111">1</text>
<text x="1543.8" y="348" text-anchor="end" transform="rotate(-35 1543.8 348)" font-family="Arial" font-size="11" fill="#333">plausible_wrong:ListEquality</text>
<rect x="1618.8" y="319.2" width="84.3" height="10.8" fill="#3b82f6"/>
<text x="1660.9" y="313.2" text-anchor="middle" font-family="Arial" font-size="12" fill="#111">1</text>
<text x="1660.9" y="348" text-anchor="end" transform="rotate(-35 1660.9 348)" font-family="Arial" font-size="11" fill="#333">plausible_wrong:AppendInsteadOfReverse</text>
<rect x="1735.9" y="319.2" width="84.3" height="10.8" fill="#3b82f6"/>
<text x="1778.0" y="313.2" text-anchor="middle" font-family="Arial" font-size="12" fill="#111">1</text>
<text x="1778.0" y="348" text-anchor="end" transform="rotate(-35 1778.0 348)" font-family="Arial" font-size="11" fill="#333">plausible_wrong:WeakHelper</text>
<rect x="1853.0" y="319.2" width="84.3" height="10.8" fill="#3b82f6"/>
<text x="1895.1" y="313.2" text-anchor="middle" font-family="Arial" font-size="12" fill="#111">1</text>
<text x="1895.1" y="348" text-anchor="end" transform="rotate(-35 1895.1 348)" font-family="Arial" font-size="11" fill="#333">plausible_wrong:AllSomeOnly</text>
<rect x="1970.1" y="319.2" width="84.3" height="10.8" fill="#3b82f6"/>
<text x="2012.2" y="313.2" text-anchor="middle" font-family="Arial" font-size="12" fill="#111">1</text>
<text x="2012.2" y="348" text-anchor="end" transform="rotate(-35 2012.2 348)" font-family="Arial" font-size="11" fill="#333">plausible_wrong:LeafOnly</text>
<rect x="2087.2" y="319.2" width="84.3" height="10.8" fill="#3b82f6"/>
<text x="2129.3" y="313.2" text-anchor="middle" font-family="Arial" font-size="12" fill="#111">1</text>
<text x="2129.3" y="348" text-anchor="end" transform="rotate(-35 2129.3 348)" font-family="Arial" font-size="11" fill="#333">plausible_wrong:EmptyOnly</text>
<rect x="2204.3" y="319.2" width="84.3" height="10.8" fill="#3b82f6"/>
<text x="2246.4" y="313.2" text-anchor="middle" font-family="Arial" font-size="12" fill="#111">1</text>
<text x="2246.4" y="348" text-anchor="end" transform="rotate(-35 2246.4 348)" font-family="Arial" font-size="11" fill="#333">plausible_wrong:FirstIncrementOnly</text>
<rect x="2321.4" y="319.2" width="84.3" height="10.8" fill="#3b82f6"/>
<text x="2363.6" y="313.2" text-anchor="middle" font-family="Arial" font-size="12" fill="#111">1</text>
<text x="2363.6" y="348" text-anchor="end" transform="rotate(-35 2363.6 348)" font-family="Arial" font-size="11" fill="#333">plausible_wrong:SingleIncrementOnly</text>
<rect x="2438.5" y="319.2" width="84.3" height="10.8" fill="#3b82f6"/>
<text x="2480.7" y="313.2" text-anchor="middle" font-family="Arial" font-size="12" fill="#111">1</text>
<text x="2480.7" y="348" text-anchor="end" transform="rotate(-35 2480.7 348)" font-family="Arial" font-size="11" fill="#333">plausible_wrong:Reversed</text>
<rect x="2555.6" y="319.2" width="84.3" height="10.8" fill="#3b82f6"/>
<text x="2597.8" y="313.2" text-anchor="middle" font-family="Arial" font-size="12" fill="#111">1</text>
<text x="2597.8" y="348" text-anchor="end" transform="rotate(-35 2597.8 348)" font-family="Arial" font-size="11" fill="#333">plausible_wrong:NonemptyHaystack</text>
<rect x="2672.7" y="319.2" width="84.3" height="10.8" fill="#3b82f6"/>
<text x="2714.9" y="313.2" text-anchor="middle" font-family="Arial" font-size="12" fill="#111">1</text>
<text x="2714.9" y="348" text-anchor="end" transform="rotate(-35 2714.9 348)" font-family="Arial" font-size="11" fill="#333">plausible_wrong:FirstPairOnly</text>
<rect x="2789.8" y="319.2" width="84.3" height="10.8" fill="#3b82f6"/>
<text x="2832.0" y="313.2" text-anchor="middle" font-family="Arial" font-size="12" fill="#111">1</text>
<text x="2832.0" y="348" text-anchor="end" transform="rotate(-35 2832.0 348)" font-family="Arial" font-size="11" fill="#333">plausible_wrong:SpendAlwaysSubtract</text>
<rect x="2906.9" y="319.2" width="84.3" height="10.8" fill="#3b82f6"/>
<text x="2949.1" y="313.2" text-anchor="middle" font-family="Arial" font-size="12" fill="#111">1</text>
<text x="2949.1" y="348" text-anchor="end" transform="rotate(-35 2949.1 348)" font-family="Arial" font-size="11" fill="#333">plausible_wrong:OnlySmallGrad</text>
<rect x="3024.0" y="319.2" width="84.3" height="10.8" fill="#3b82f6"/>
<text x="3066.2" y="313.2" text-anchor="middle" font-family="Arial" font-size="12" fill="#111">1</text>
<text x="3066.2" y="348" text-anchor="end" transform="rotate(-35 3066.2 348)" font-family="Arial" font-size="11" fill="#333">plausible_wrong:NoUpperClip</text>
<rect x="3141.1" y="319.2" width="84.3" height="10.8" fill="#3b82f6"/>
<text x="3183.3" y="313.2" text-anchor="middle" font-family="Arial" font-size="12" fill="#111">1</text>
<text x="3183.3" y="348" text-anchor="end" transform="rotate(-35 3183.3 348)" font-family="Arial" font-size="11" fill="#333">plausible_wrong:ProjectionAdd</text>
<rect x="3258.2" y="319.2" width="84.3" height="10.8" fill="#3b82f6"/>
<text x="3300.4" y="313.2" text-anchor="middle" font-family="Arial" font-size="12" fill="#111">1</text>
<text x="3300.4" y="348" text-anchor="end" transform="rotate(-35 3300.4 348)" font-family="Arial" font-size="11" fill="#333">plausible_wrong:ReverseAppend</text>
<rect x="3375.3" y="319.2" width="84.3" height="10.8" fill="#3b82f6"/>
<text x="3417.5" y="313.2" text-anchor="middle" font-family="Arial" font-size="12" fill="#111">1</text>
<text x="3417.5" y="348" text-anchor="end" transform="rotate(-35 3417.5 348)" font-family="Arial" font-size="11" fill="#333">plausible_wrong:IdentityMap</text>
<rect x="3492.4" y="319.2" width="84.3" height="10.8" fill="#3b82f6"/>
<text x="3534.6" y="313.2" text-anchor="middle" font-family="Arial" font-size="12" fill="#111">1</text>
<text x="3534.6" y="348" text-anchor="end" transform="rotate(-35 3534.6 348)" font-family="Arial" font-size="11" fill="#333">plausible_wrong:NeedsExtraHyp</text>
<rect x="3609.6" y="319.2" width="84.3" height="10.8" fill="#3b82f6"/>
<text x="3651.7" y="313.2" text-anchor="middle" font-family="Arial" font-size="12" fill="#111">1</text>
<text x="3651.7" y="348" text-anchor="end" transform="rotate(-35 3651.7 348)" font-family="Arial" font-size="11" fill="#333">plausible_wrong:MissingSurjectivity</text>
<rect x="3726.7" y="319.2" width="84.3" height="10.8" fill="#3b82f6"/>
<text x="3768.8" y="313.2" text-anchor="middle" font-family="Arial" font-size="12" fill="#111">1</text>
<text x="3768.8" y="348" text-anchor="end" transform="rotate(-35 3768.8 348)" font-family="Arial" font-size="11" fill="#333">plausible_wrong:UnivOnlySurjectivity</text>
<rect x="3843.8" y="319.2" width="84.3" height="10.8" fill="#3b82f6"/>
<text x="3885.9" y="313.2" text-anchor="middle" font-family="Arial" font-size="12" fill="#111">1</text>
<text x="3885.9" y="348" text-anchor="end" transform="rotate(-35 3885.9 348)" font-family="Arial" font-size="11" fill="#333">plausible_wrong:LengthAsSum</text>
<rect x="3960.9" y="319.2" width="84.3" height="10.8" fill="#3b82f6"/>
<text x="4003.0" y="313.2" text-anchor="middle" font-family="Arial" font-size="12" fill="#111">1</text>
<text x="4003.0" y="348" text-anchor="end" transform="rotate(-35 4003.0 348)" font-family="Arial" font-size="11" fill="#333">plausible_wrong:LengthOnly</text>
<rect x="4078.0" y="319.2" width="84.3" height="10.8" fill="#3b82f6"/>
<text x="4120.1" y="313.2" text-anchor="middle" font-family="Arial" font-size="12" fill="#111">1</text>
<text x="4120.1" y="348" text-anchor="end" transform="rotate(-35 4120.1 348)" font-family="Arial" font-size="11" fill="#333">plausible_wrong:LengthBagEq</text>
<rect x="4195.1" y="319.2" width="84.3" height="10.8" fill="#3b82f6"/>
<text x="4237.2" y="313.2" text-anchor="middle" font-family="Arial" font-size="12" fill="#111">1</text>
<text x="4237.2" y="348" text-anchor="end" transform="rotate(-35 4237.2 348)" font-family="Arial" font-size="11" fill="#333">plausible_wrong:SetMembershipOnly</text>
<rect x="4312.2" y="319.2" width="84.3" height="10.8" fill="#3b82f6"/>
<text x="4354.3" y="313.2" text-anchor="middle" font-family="Arial" font-size="12" fill="#111">1</text>
<text x="4354.3" y="348" text-anchor="end" transform="rotate(-35 4354.3 348)" font-family="Arial" font-size="11" fill="#333">plausible_wrong:DropRightSide</text>
<rect x="4429.3" y="319.2" width="84.3" height="10.8" fill="#3b82f6"/>
<text x="4471.4" y="313.2" text-anchor="middle" font-family="Arial" font-size="12" fill="#111">1</text>
<text x="4471.4" y="348" text-anchor="end" transform="rotate(-35 4471.4 348)" font-family="Arial" font-size="11" fill="#333">plausible_wrong:WeakAllGt</text>
</svg>