<svg xmlns="http://www.w3.org/2000/svg" width="760" height="420" viewBox="0 0 760 420">
<rect width="100%" height="100%" fill="#ffffff"/>
<text x="380.0" y="28" text-anchor="middle" font-family="Arial" font-size="18" fill="#111">Problem-level human time estimates</text>
<line x1="80" y1="350" x2="720" y2="350" stroke="#333"/>
<line x1="80" y1="50" x2="80" y2="350" stroke="#333"/>
<text x="380.0" y="400" text-anchor="middle" font-family="Arial" font-size="12" fill="#333">human p50 minutes</text>
<text x="20" y="210.0" transform="rotate(-90 20 210.0)" text-anchor="middle" font-family="Arial" font-size="12" fill="#333">time bucket</text>
<text x="70" y="354.0" text-anchor="end" font-family="Arial" font-size="11" fill="#333">T0</text>
<line x1="80" y1="350.0" x2="720" y2="350.0" stroke="#eee"/>
<text x="70" y="279.0" text-anchor="end" font-family="Arial" font-size="11" fill="#333">T1</text>
<line x1="80" y1="275.0" x2="720" y2="275.0" stroke="#eee"/>
<text x="70" y="204.0" text-anchor="end" font-family="Arial" font-size="11" fill="#333">T2</text>
<line x1="80" y1="200.0" x2="720" y2="200.0" stroke="#eee"/>
<text x="70" y="129.0" text-anchor="end" font-family="Arial" font-size="11" fill="#333">T3</text>
<line x1="80" y1="125.0" x2="720" y2="125.0" stroke="#eee"/>
<text x="70" y="54.0" text-anchor="end" font-family="Arial" font-size="11" fill="#333">T4</text>
<line x1="80" y1="50.0" x2="720" y2="50.0" stroke="#eee"/>
<circle cx="293.3" cy="275.0" r="6" fill="#2563eb" opacity="0.82"><title>algorithm_correctness: 25 min</title></circle>
<circle cx="250.7" cy="275.0" r="6" fill="#2563eb" opacity="0.82"><title>algorithm_correctness: 20 min</title></circle>
<circle cx="378.7" cy="275.0" r="6" fill="#16a34a" opacity="0.82"><title>proof_repair_codebase: 35 min</title></circle>
<circle cx="336.0" cy="275.0" r="6" fill="#dc2626" opacity="0.82"><title>informal_spec_to_formal: 30 min</title></circle>
<circle cx="293.3" cy="275.0" r="6" fill="#9333ea" opacity="0.82"><title>invariant_verification_ml_optimization: 25 min</title></circle>
<circle cx="378.7" cy="275.0" r="6" fill="#2563eb" opacity="0.82"><title>algorithm_correctness: 35 min</title></circle>
<circle cx="293.3" cy="275.0" r="6" fill="#2563eb" opacity="0.82"><title>algorithm_correctness: 25 min</title></circle>
<circle cx="421.3" cy="275.0" r="6" fill="#2563eb" opacity="0.82"><title>algorithm_correctness: 40 min</title></circle>
<circle cx="378.7" cy="275.0" r="6" fill="#16a34a" opacity="0.82"><title>proof_repair_codebase: 35 min</title></circle>
<circle cx="549.3" cy="200.0" r="6" fill="#16a34a" opacity="0.82"><title>proof_repair_codebase: 55 min</title></circle>
<circle cx="336.0" cy="275.0" r="6" fill="#dc2626" opacity="0.82"><title>informal_spec_to_formal: 30 min</title></circle>
<circle cx="506.7" cy="200.0" r="6" fill="#dc2626" opacity="0.82"><title>informal_spec_to_formal: 50 min</title></circle>
<circle cx="592.0" cy="200.0" r="6" fill="#dc2626" opacity="0.82"><title>informal_spec_to_formal: 60 min</title></circle>
<circle cx="336.0" cy="275.0" r="6" fill="#9333ea" opacity="0.82"><title>invariant_verification_ml_optimization: 30 min</title></circle>
<circle cx="293.3" cy="275.0" r="6" fill="#9333ea" opacity="0.82"><title>invariant_verification_ml_optimization: 25 min</title></circle>
<circle cx="720.0" cy="200.0" r="6" fill="#9333ea" opacity="0.82"><title>invariant_verification_ml_optimization: 75 min</title></circle>
<circle cx="378.7" cy="275.0" r="6" fill="#d97706" opacity="0.82"><title>small_formal_library_construction: 35 min</title></circle>
<circle cx="549.3" cy="200.0" r="6" fill="#d97706" opacity="0.82"><title>small_formal_library_construction: 55 min</title></circle>
<circle cx="293.3" cy="275.0" r="6" fill="#d97706" opacity="0.82"><title>small_formal_library_construction: 25 min</title></circle>
<circle cx="250.7" cy="275.0" r="6" fill="#0891b2" opacity="0.82"><title>direct_theorem_proving: 20 min</title></circle>
</svg>